# xmcd
#
# Track frame offsets:
#	157
#	22650
#	36387
#	50167
#	59557
#	76220
#	76777
#	82175
#	102250
#	104217
#	119810
#	127385
#	140420
#	143620
#	158817
#	166445
#	184950
#
# Disc length: 2764 seconds
#
# Revision: 1
# Processed by: cddbd v1.5.1PL0 Copyright (c) Steve Scherf et al.
# Submitted via: MusicWizard 7.0.2
#
DISCID=f90aca11
DTITLE=95 South - Quad City Knock
DYEAR=1993
DGENRE=Freestyle - Bass - Electro /Old School
TTITLE0=Hump Wit' It
TTITLE1=Booty Hop
TTITLE2=Whoot, There It Is
TTITLE3=Bring Out Da Ho's
TTITLE4=Do It Baby
TTITLE5=This Is A Test
TTITLE6=60 Seconds
TTITLE7=Let's Go To My Room
TTITLE8=Shouts Out
TTITLE9=One Time
TTITLE10=We Got Da Bass
TTITLE11=Shake Rattle N' Roll
TTITLE12=Booty Man Battle
TTITLE13=Da Kinda Bass
TTITLE14=95 South In Da House
TTITLE15=So Clear
TTITLE16=Ghetto Style
EXTD=
EXTT0=
EXTT1=
EXTT2=
EXTT3=
EXTT4=
EXTT5=
EXTT6=
EXTT7=
EXTT8=
EXTT9=
EXTT10=
EXTT11=
EXTT12=
EXTT13=
EXTT14=
EXTT15=
EXTT16=
PLAYORDER=
